<svg xmlns="http://www.w3.org/2000/svg" xmlns:xlink="http://www.w3.org/1999/xlink" width="500" zoomAndPan="magnify" viewBox="0 0 375 374.999991" height="500" preserveAspectRatio="xMidYMid meet" version="1.0"><defs><clipPath id="f5c0a49b6a"><path d="M 5.445312 5.445312 L 369.195312 5.445312 L 369.195312 369.195312 L 5.445312 369.195312 Z M 5.445312 5.445312 " clip-rule="nonzero"/></clipPath><clipPath id="97d8cca0e7"><path d="M 369.546875 187.496094 C 369.546875 190.476562 369.472656 193.453125 369.328125 196.429688 C 369.179688 199.40625 368.960938 202.375 368.671875 205.339844 C 368.378906 208.304688 368.011719 211.261719 367.578125 214.207031 C 367.140625 217.15625 366.628906 220.089844 366.046875 223.011719 C 365.46875 225.933594 364.816406 228.839844 364.089844 231.730469 C 363.367188 234.621094 362.574219 237.492188 361.707031 240.34375 C 360.84375 243.195312 359.910156 246.023438 358.90625 248.828125 C 357.902344 251.632812 356.828125 254.410156 355.6875 257.164062 C 354.546875 259.917969 353.339844 262.640625 352.066406 265.332031 C 350.792969 268.027344 349.453125 270.6875 348.050781 273.3125 C 346.644531 275.941406 345.179688 278.53125 343.644531 281.089844 C 342.113281 283.644531 340.519531 286.160156 338.867188 288.636719 C 337.210938 291.113281 335.496094 293.550781 333.71875 295.945312 C 331.945312 298.335938 330.113281 300.683594 328.222656 302.988281 C 326.332031 305.289062 324.386719 307.546875 322.386719 309.753906 C 320.386719 311.960938 318.332031 314.117188 316.226562 316.226562 C 314.117188 318.332031 311.960938 320.386719 309.753906 322.386719 C 307.546875 324.386719 305.289062 326.332031 302.988281 328.222656 C 300.683594 330.113281 298.335938 331.945312 295.941406 333.71875 C 293.550781 335.496094 291.113281 337.210938 288.636719 338.867188 C 286.160156 340.519531 283.644531 342.113281 281.089844 343.644531 C 278.53125 345.179688 275.941406 346.644531 273.3125 348.050781 C 270.6875 349.453125 268.027344 350.792969 265.332031 352.066406 C 262.640625 353.339844 259.917969 354.546875 257.164062 355.6875 C 254.410156 356.828125 251.632812 357.902344 248.828125 358.90625 C 246.023438 359.910156 243.195312 360.84375 240.34375 361.707031 C 237.492188 362.574219 234.621094 363.367188 231.730469 364.089844 C 228.839844 364.816406 225.933594 365.46875 223.011719 366.046875 C 220.089844 366.628906 217.15625 367.140625 214.207031 367.578125 C 211.261719 368.011719 208.304688 368.378906 205.339844 368.671875 C 202.375 368.960938 199.40625 369.179688 196.429688 369.328125 C 193.453125 369.472656 190.476562 369.546875 187.496094 369.546875 C 184.515625 369.546875 181.539062 369.472656 178.5625 369.328125 C 175.585938 369.179688 172.617188 368.960938 169.652344 368.671875 C 166.6875 368.378906 163.730469 368.011719 160.785156 367.578125 C 157.835938 367.140625 154.902344 366.628906 151.980469 366.046875 C 149.058594 365.46875 146.152344 364.816406 143.261719 364.089844 C 140.371094 363.367188 137.5 362.574219 134.648438 361.707031 C 131.796875 360.84375 128.96875 359.910156 126.164062 358.90625 C 123.359375 357.902344 120.582031 356.828125 117.828125 355.6875 C 115.074219 354.546875 112.351562 353.339844 109.660156 352.066406 C 106.964844 350.792969 104.304688 349.453125 101.675781 348.050781 C 99.050781 346.644531 96.457031 345.179688 93.902344 343.644531 C 91.347656 342.113281 88.832031 340.519531 86.355469 338.867188 C 83.875 337.210938 81.441406 335.496094 79.046875 333.71875 C 76.65625 331.945312 74.308594 330.113281 72.003906 328.222656 C 69.699219 326.332031 67.445312 324.386719 65.238281 322.386719 C 63.03125 320.386719 60.875 318.332031 58.765625 316.226562 C 56.660156 314.117188 54.605469 311.960938 52.605469 309.753906 C 50.605469 307.546875 48.660156 305.289062 46.769531 302.988281 C 44.878906 300.683594 43.046875 298.335938 41.269531 295.945312 C 39.496094 293.550781 37.78125 291.113281 36.125 288.636719 C 34.472656 286.160156 32.878906 283.644531 31.34375 281.089844 C 29.8125 278.53125 28.347656 275.941406 26.941406 273.3125 C 25.535156 270.6875 24.199219 268.027344 22.925781 265.332031 C 21.648438 262.640625 20.441406 259.917969 19.304688 257.164062 C 18.164062 254.410156 17.089844 251.632812 16.085938 248.828125 C 15.082031 246.023438 14.148438 243.195312 13.285156 240.34375 C 12.417969 237.492188 11.625 234.621094 10.902344 231.730469 C 10.175781 228.839844 9.523438 225.933594 8.941406 223.011719 C 8.363281 220.089844 7.851562 217.15625 7.414062 214.207031 C 6.976562 211.261719 6.613281 208.304688 6.320312 205.339844 C 6.03125 202.375 5.8125 199.40625 5.664062 196.429688 C 5.519531 193.453125 5.445312 190.476562 5.445312 187.496094 C 5.445312 184.515625 5.519531 181.539062 5.664062 178.5625 C 5.8125 175.585938 6.03125 172.617188 6.320312 169.652344 C 6.613281 166.6875 6.976562 163.730469 7.414062 160.785156 C 7.851562 157.835938 8.363281 154.902344 8.941406 151.980469 C 9.523438 149.058594 10.175781 146.152344 10.902344 143.261719 C 11.625 140.371094 12.417969 137.5 13.285156 134.648438 C 14.148438 131.796875 15.082031 128.96875 16.085938 126.164062 C 17.089844 123.359375 18.164062 120.582031 19.304688 117.828125 C 20.441406 115.074219 21.648438 112.351562 22.925781 109.660156 C 24.199219 106.964844 25.535156 104.304688 26.941406 101.679688 C 28.347656 99.050781 29.8125 96.457031 31.34375 93.902344 C 32.878906 91.347656 34.472656 88.832031 36.125 86.355469 C 37.78125 83.875 39.496094 81.441406 41.269531 79.046875 C 43.046875 76.65625 44.878906 74.308594 46.769531 72.003906 C 48.660156 69.699219 50.605469 67.445312 52.605469 65.238281 C 54.605469 63.03125 56.660156 60.875 58.765625 58.765625 C 60.875 56.660156 63.03125 54.605469 65.238281 52.605469 C 67.445312 50.605469 69.699219 48.660156 72.003906 46.769531 C 74.308594 44.878906 76.65625 43.046875 79.046875 41.269531 C 81.441406 39.496094 83.875 37.78125 86.355469 36.125 C 88.832031 34.472656 91.347656 32.878906 93.902344 31.347656 C 96.457031 29.8125 99.050781 28.347656 101.675781 26.941406 C 104.304688 25.535156 106.964844 24.199219 109.660156 22.925781 C 112.351562 21.648438 115.074219 20.441406 117.828125 19.304688 C 120.582031 18.164062 123.359375 17.089844 126.164062 16.085938 C 128.96875 15.082031 131.796875 14.148438 134.648438 13.285156 C 137.5 12.417969 140.371094 11.625 143.261719 10.902344 C 146.152344 10.175781 149.058594 9.523438 151.980469 8.941406 C 154.902344 8.363281 157.835938 7.851562 160.785156 7.414062 C 163.730469 6.976562 166.6875 6.613281 169.652344 6.320312 C 172.617188 6.03125 175.585938 5.8125 178.5625 5.664062 C 181.539062 5.519531 184.515625 5.445312 187.496094 5.445312 C 190.476562 5.445312 193.453125 5.519531 196.429688 5.664062 C 199.40625 5.8125 202.375 6.03125 205.339844 6.320312 C 208.304688 6.613281 211.261719 6.976562 214.207031 7.414062 C 217.15625 7.851562 220.089844 8.363281 223.011719 8.941406 C 225.933594 9.523438 228.839844 10.175781 231.730469 10.902344 C 234.621094 11.625 237.492188 12.417969 240.34375 13.285156 C 243.195312 14.148438 246.023438 15.082031 248.828125 16.085938 C 251.632812 17.089844 254.410156 18.164062 257.164062 19.304688 C 259.917969 20.441406 262.640625 21.648438 265.332031 22.925781 C 268.027344 24.199219 270.6875 25.535156 273.3125 26.941406 C 275.941406 28.347656 278.53125 29.8125 281.089844 31.347656 C 283.644531 32.878906 286.160156 34.472656 288.636719 36.125 C 291.113281 37.78125 293.550781 39.496094 295.941406 41.269531 C 298.335938 43.046875 300.683594 44.878906 302.988281 46.769531 C 305.289062 48.660156 307.546875 50.605469 309.753906 52.605469 C 311.960938 54.605469 314.117188 56.660156 316.226562 58.765625 C 318.332031 60.875 320.386719 63.03125 322.386719 65.238281 C 324.386719 67.445312 326.332031 69.699219 328.222656 72.003906 C 330.113281 74.308594 331.945312 76.65625 333.71875 79.046875 C 335.496094 81.441406 337.210938 83.875 338.867188 86.355469 C 340.519531 88.832031 342.113281 91.347656 343.644531 93.902344 C 345.179688 96.457031 346.644531 99.050781 348.050781 101.679688 C 349.453125 104.304688 350.792969 106.964844 352.066406 109.660156 C 353.339844 112.351562 354.546875 115.074219 355.6875 117.828125 C 356.828125 120.582031 357.902344 123.359375 358.90625 126.164062 C 359.910156 128.96875 360.84375 131.796875 361.707031 134.648438 C 362.574219 137.5 363.367188 140.371094 364.089844 143.261719 C 364.816406 146.152344 365.46875 149.058594 366.046875 151.980469 C 366.628906 154.902344 367.140625 157.835938 367.574219 160.785156 C 368.011719 163.730469 368.378906 166.6875 368.671875 169.652344 C 368.960938 172.617188 369.179688 175.585938 369.328125 178.5625 C 369.472656 181.539062 369.546875 184.515625 369.546875 187.496094 Z M 369.546875 187.496094 " clip-rule="nonzero"/></clipPath><linearGradient x1="-0.000000018174" gradientTransform="matrix(364.101551, 0, 0, 364.101551, 5.44508, 5.44513)" y1="-0.0000000179958" x2="1.003932" gradientUnits="userSpaceOnUse" y2="0.994089" id="69cab837f6"><stop stop-opacity="1" stop-color="rgb(98.799133%, 63.499451%, 69.398499%)" offset="0"/><stop stop-opacity="1" stop-color="rgb(98.789978%, 63.479614%, 69.515991%)" offset="0.0078125"/><stop stop-opacity="1" stop-color="rgb(98.771667%, 63.439941%, 69.752502%)" offset="0.015625"/><stop stop-opacity="1" stop-color="rgb(98.754883%, 63.400269%, 69.989014%)" offset="0.0234375"/><stop stop-opacity="1" stop-color="rgb(98.736572%, 63.362122%, 70.225525%)" offset="0.03125"/><stop stop-opacity="1" stop-color="rgb(98.719788%, 63.322449%, 70.46051%)" offset="0.0390625"/><stop stop-opacity="1" stop-color="rgb(98.701477%, 63.282776%, 70.697021%)" offset="0.046875"/><stop stop-opacity="1" stop-color="rgb(98.683167%, 63.243103%, 70.933533%)" offset="0.0546875"/><stop stop-opacity="1" stop-color="rgb(98.666382%, 63.20343%, 71.168518%)" offset="0.0625"/><stop stop-opacity="1" stop-color="rgb(98.648071%, 63.165283%, 71.405029%)" offset="0.0703125"/><stop stop-opacity="1" stop-color="rgb(98.629761%, 63.12561%, 71.641541%)" offset="0.078125"/><stop stop-opacity="1" stop-color="rgb(98.612976%, 63.085938%, 71.876526%)" offset="0.0859375"/><stop stop-opacity="1" stop-color="rgb(98.594666%, 63.046265%, 72.113037%)" offset="0.09375"/><stop stop-opacity="1" stop-color="rgb(98.577881%, 63.008118%, 72.349548%)" offset="0.101563"/><stop stop-opacity="1" stop-color="rgb(98.55957%, 62.968445%, 72.584534%)" offset="0.109375"/><stop stop-opacity="1" stop-color="rgb(98.54126%, 62.928772%, 72.821045%)" offset="0.117188"/><stop stop-opacity="1" stop-color="rgb(98.524475%, 62.889099%, 73.057556%)" offset="0.125"/><stop stop-opacity="1" stop-color="rgb(98.506165%, 62.849426%, 73.292542%)" offset="0.132812"/><stop stop-opacity="1" stop-color="rgb(98.487854%, 62.811279%, 73.529053%)" offset="0.140625"/><stop stop-opacity="1" stop-color="rgb(98.471069%, 62.771606%, 73.765564%)" offset="0.148438"/><stop stop-opacity="1" stop-color="rgb(98.452759%, 62.731934%, 74.000549%)" offset="0.15625"/><stop stop-opacity="1" stop-color="rgb(98.435974%, 62.692261%, 74.237061%)" offset="0.164062"/><stop stop-opacity="1" stop-color="rgb(98.417664%, 62.654114%, 74.473572%)" offset="0.171875"/><stop stop-opacity="1" stop-color="rgb(98.399353%, 62.614441%, 74.708557%)" offset="0.179688"/><stop stop-opacity="1" stop-color="rgb(98.382568%, 62.574768%, 74.945068%)" offset="0.1875"/><stop stop-opacity="1" stop-color="rgb(98.364258%, 62.535095%, 75.18158%)" offset="0.195312"/><stop stop-opacity="1" stop-color="rgb(98.345947%, 62.495422%, 75.416565%)" offset="0.203125"/><stop stop-opacity="1" stop-color="rgb(98.329163%, 62.457275%, 75.653076%)" offset="0.210938"/><stop stop-opacity="1" stop-color="rgb(98.310852%, 62.417603%, 75.889587%)" offset="0.21875"/><stop stop-opacity="1" stop-color="rgb(98.294067%, 62.37793%, 76.124573%)" offset="0.226563"/><stop stop-opacity="1" stop-color="rgb(98.275757%, 62.338257%, 76.361084%)" offset="0.234375"/><stop stop-opacity="1" stop-color="rgb(98.257446%, 62.298584%, 76.597595%)" offset="0.242188"/><stop stop-opacity="1" stop-color="rgb(98.240662%, 62.260437%, 76.832581%)" offset="0.25"/><stop stop-opacity="1" stop-color="rgb(98.222351%, 62.220764%, 77.069092%)" offset="0.257812"/><stop stop-opacity="1" stop-color="rgb(98.204041%, 62.181091%, 77.305603%)" offset="0.265625"/><stop stop-opacity="1" stop-color="rgb(98.187256%, 62.141418%, 77.540588%)" offset="0.273438"/><stop stop-opacity="1" stop-color="rgb(98.168945%, 62.103271%, 77.7771%)" offset="0.28125"/><stop stop-opacity="1" stop-color="rgb(98.152161%, 62.063599%, 78.013611%)" offset="0.289062"/><stop stop-opacity="1" stop-color="rgb(98.13385%, 62.023926%, 78.248596%)" offset="0.296875"/><stop stop-opacity="1" stop-color="rgb(98.11554%, 61.984253%, 78.485107%)" offset="0.304688"/><stop stop-opacity="1" stop-color="rgb(98.098755%, 61.94458%, 78.721619%)" offset="0.3125"/><stop stop-opacity="1" stop-color="rgb(98.080444%, 61.906433%, 78.956604%)" offset="0.320312"/><stop stop-opacity="1" stop-color="rgb(98.062134%, 61.86676%, 79.193115%)" offset="0.328125"/><stop stop-opacity="1" stop-color="rgb(98.045349%, 61.827087%, 79.429626%)" offset="0.335938"/><stop stop-opacity="1" stop-color="rgb(98.027039%, 61.787415%, 79.664612%)" offset="0.34375"/><stop stop-opacity="1" stop-color="rgb(98.010254%, 61.749268%, 79.901123%)" offset="0.351562"/><stop stop-opacity="1" stop-color="rgb(97.991943%, 61.709595%, 80.137634%)" offset="0.359375"/><stop stop-opacity="1" stop-color="rgb(97.973633%, 61.669922%, 80.37262%)" offset="0.367188"/><stop stop-opacity="1" stop-color="rgb(97.956848%, 61.630249%, 80.609131%)" offset="0.375"/><stop stop-opacity="1" stop-color="rgb(97.938538%, 61.590576%, 80.845642%)" offset="0.382812"/><stop stop-opacity="1" stop-color="rgb(97.920227%, 61.552429%, 81.082153%)" offset="0.390625"/><stop stop-opacity="1" stop-color="rgb(97.903442%, 61.512756%, 81.317139%)" offset="0.398438"/><stop stop-opacity="1" stop-color="rgb(97.885132%, 61.473083%, 81.55365%)" offset="0.40625"/><stop stop-opacity="1" stop-color="rgb(97.868347%, 61.433411%, 81.790161%)" offset="0.414062"/><stop stop-opacity="1" stop-color="rgb(97.850037%, 61.395264%, 82.025146%)" offset="0.421875"/><stop stop-opacity="1" stop-color="rgb(97.831726%, 61.355591%, 82.261658%)" offset="0.429688"/><stop stop-opacity="1" stop-color="rgb(97.814941%, 61.315918%, 82.498169%)" offset="0.4375"/><stop stop-opacity="1" stop-color="rgb(97.796631%, 61.276245%, 82.733154%)" offset="0.445312"/><stop stop-opacity="1" stop-color="rgb(97.77832%, 61.236572%, 82.969666%)" offset="0.453125"/><stop stop-opacity="1" stop-color="rgb(97.761536%, 61.198425%, 83.206177%)" offset="0.460938"/><stop stop-opacity="1" stop-color="rgb(97.743225%, 61.158752%, 83.441162%)" offset="0.46875"/><stop stop-opacity="1" stop-color="rgb(97.72644%, 61.11908%, 83.677673%)" offset="0.476562"/><stop stop-opacity="1" stop-color="rgb(97.70813%, 61.079407%, 83.914185%)" offset="0.484375"/><stop stop-opacity="1" stop-color="rgb(97.689819%, 61.04126%, 84.14917%)" offset="0.492187"/><stop stop-opacity="1" stop-color="rgb(97.673035%, 61.001587%, 84.385681%)" offset="0.497537"/><stop stop-opacity="1" stop-color="rgb(97.663879%, 60.98175%, 84.5047%)" offset="0.5"/><stop stop-opacity="1" stop-color="rgb(97.654724%, 60.961914%, 84.622192%)" offset="0.502463"/><stop stop-opacity="1" stop-color="rgb(97.645569%, 60.942078%, 84.739685%)" offset="0.507812"/><stop stop-opacity="1" stop-color="rgb(97.636414%, 60.922241%, 84.857178%)" offset="0.515625"/><stop stop-opacity="1" stop-color="rgb(97.619629%, 60.882568%, 85.093689%)" offset="0.523438"/><stop stop-opacity="1" stop-color="rgb(97.601318%, 60.844421%, 85.3302%)" offset="0.53125"/><stop stop-opacity="1" stop-color="rgb(97.584534%, 60.804749%, 85.565186%)" offset="0.539062"/><stop stop-opacity="1" stop-color="rgb(97.566223%, 60.765076%, 85.801697%)" offset="0.546875"/><stop stop-opacity="1" stop-color="rgb(97.547913%, 60.725403%, 86.038208%)" offset="0.554688"/><stop stop-opacity="1" stop-color="rgb(97.531128%, 60.687256%, 86.273193%)" offset="0.5625"/><stop stop-opacity="1" stop-color="rgb(97.512817%, 60.647583%, 86.509705%)" offset="0.570312"/><stop stop-opacity="1" stop-color="rgb(97.494507%, 60.60791%, 86.746216%)" offset="0.578125"/><stop stop-opacity="1" stop-color="rgb(97.477722%, 60.568237%, 86.981201%)" offset="0.585938"/><stop stop-opacity="1" stop-color="rgb(97.459412%, 60.528564%, 87.217712%)" offset="0.59375"/><stop stop-opacity="1" stop-color="rgb(97.442627%, 60.490417%, 87.454224%)" offset="0.601562"/><stop stop-opacity="1" stop-color="rgb(97.424316%, 60.450745%, 87.689209%)" offset="0.609375"/><stop stop-opacity="1" stop-color="rgb(97.406006%, 60.411072%, 87.92572%)" offset="0.617188"/><stop stop-opacity="1" stop-color="rgb(97.389221%, 60.371399%, 88.162231%)" offset="0.625"/><stop stop-opacity="1" stop-color="rgb(97.370911%, 60.333252%, 88.397217%)" offset="0.632812"/><stop stop-opacity="1" stop-color="rgb(97.3526%, 60.293579%, 88.633728%)" offset="0.640625"/><stop stop-opacity="1" stop-color="rgb(97.335815%, 60.253906%, 88.870239%)" offset="0.648438"/><stop stop-opacity="1" stop-color="rgb(97.317505%, 60.214233%, 89.105225%)" offset="0.65625"/><stop stop-opacity="1" stop-color="rgb(97.299194%, 60.174561%, 89.341736%)" offset="0.664062"/><stop stop-opacity="1" stop-color="rgb(97.28241%, 60.136414%, 89.578247%)" offset="0.671875"/><stop stop-opacity="1" stop-color="rgb(97.264099%, 60.096741%, 89.813232%)" offset="0.679688"/><stop stop-opacity="1" stop-color="rgb(97.247314%, 60.057068%, 90.049744%)" offset="0.6875"/><stop stop-opacity="1" stop-color="rgb(97.229004%, 60.017395%, 90.286255%)" offset="0.695312"/><stop stop-opacity="1" stop-color="rgb(97.210693%, 59.979248%, 90.52124%)" offset="0.703125"/><stop stop-opacity="1" stop-color="rgb(97.193909%, 59.939575%, 90.757751%)" offset="0.710938"/><stop stop-opacity="1" stop-color="rgb(97.175598%, 59.899902%, 90.994263%)" offset="0.71875"/><stop stop-opacity="1" stop-color="rgb(97.157288%, 59.860229%, 91.229248%)" offset="0.726562"/><stop stop-opacity="1" stop-color="rgb(97.140503%, 59.820557%, 91.465759%)" offset="0.734375"/><stop stop-opacity="1" stop-color="rgb(97.122192%, 59.78241%, 91.702271%)" offset="0.742188"/><stop stop-opacity="1" stop-color="rgb(97.105408%, 59.742737%, 91.938782%)" offset="0.75"/><stop stop-opacity="1" stop-color="rgb(97.087097%, 59.703064%, 92.173767%)" offset="0.757812"/><stop stop-opacity="1" stop-color="rgb(97.068787%, 59.663391%, 92.410278%)" offset="0.765625"/><stop stop-opacity="1" stop-color="rgb(97.052002%, 59.625244%, 92.64679%)" offset="0.773438"/><stop stop-opacity="1" stop-color="rgb(97.033691%, 59.585571%, 92.881775%)" offset="0.78125"/><stop stop-opacity="1" stop-color="rgb(97.015381%, 59.545898%, 93.118286%)" offset="0.789062"/><stop stop-opacity="1" stop-color="rgb(96.998596%, 59.506226%, 93.354797%)" offset="0.796875"/><stop stop-opacity="1" stop-color="rgb(96.980286%, 59.466553%, 93.589783%)" offset="0.804688"/><stop stop-opacity="1" stop-color="rgb(96.963501%, 59.428406%, 93.826294%)" offset="0.8125"/><stop stop-opacity="1" stop-color="rgb(96.94519%, 59.388733%, 94.062805%)" offset="0.820312"/><stop stop-opacity="1" stop-color="rgb(96.92688%, 59.34906%, 94.297791%)" offset="0.828125"/><stop stop-opacity="1" stop-color="rgb(96.910095%, 59.309387%, 94.534302%)" offset="0.835938"/><stop stop-opacity="1" stop-color="rgb(96.891785%, 59.27124%, 94.770813%)" offset="0.84375"/><stop stop-opacity="1" stop-color="rgb(96.873474%, 59.231567%, 95.005798%)" offset="0.851562"/><stop stop-opacity="1" stop-color="rgb(96.856689%, 59.191895%, 95.24231%)" offset="0.859375"/><stop stop-opacity="1" stop-color="rgb(96.838379%, 59.152222%, 95.478821%)" offset="0.867188"/><stop stop-opacity="1" stop-color="rgb(96.821594%, 59.112549%, 95.713806%)" offset="0.875"/><stop stop-opacity="1" stop-color="rgb(96.803284%, 59.074402%, 95.950317%)" offset="0.882812"/><stop stop-opacity="1" stop-color="rgb(96.784973%, 59.034729%, 96.186829%)" offset="0.890625"/><stop stop-opacity="1" stop-color="rgb(96.768188%, 58.995056%, 96.421814%)" offset="0.898438"/><stop stop-opacity="1" stop-color="rgb(96.749878%, 58.955383%, 96.658325%)" offset="0.90625"/><stop stop-opacity="1" stop-color="rgb(96.731567%, 58.91571%, 96.894836%)" offset="0.914062"/><stop stop-opacity="1" stop-color="rgb(96.714783%, 58.877563%, 97.129822%)" offset="0.921875"/><stop stop-opacity="1" stop-color="rgb(96.696472%, 58.837891%, 97.366333%)" offset="0.929688"/><stop stop-opacity="1" stop-color="rgb(96.679688%, 58.798218%, 97.602844%)" offset="0.9375"/><stop stop-opacity="1" stop-color="rgb(96.661377%, 58.758545%, 97.83783%)" offset="0.945313"/><stop stop-opacity="1" stop-color="rgb(96.643066%, 58.720398%, 98.074341%)" offset="0.953125"/><stop stop-opacity="1" stop-color="rgb(96.626282%, 58.680725%, 98.310852%)" offset="0.960938"/><stop stop-opacity="1" stop-color="rgb(96.607971%, 58.641052%, 98.545837%)" offset="0.96875"/><stop stop-opacity="1" stop-color="rgb(96.589661%, 58.601379%, 98.782349%)" offset="0.976562"/><stop stop-opacity="1" stop-color="rgb(96.572876%, 58.561707%, 99.01886%)" offset="0.984375"/><stop stop-opacity="1" stop-color="rgb(96.554565%, 58.52356%, 99.253845%)" offset="0.992188"/><stop stop-opacity="1" stop-color="rgb(96.537781%, 58.483887%, 99.490356%)" offset="1"/></linearGradient><clipPath id="3d158259f2"><path d="M 19.796875 37 L 157 37 L 157 175 L 19.796875 175 Z M 19.796875 37 " clip-rule="nonzero"/></clipPath><clipPath id="c32dcb4ae7"><path d="M 86 276 L 132 276 L 132 344.488281 L 86 344.488281 Z M 86 276 " clip-rule="nonzero"/></clipPath><clipPath id="db641dc847"><path d="M 209 215 L 256 215 L 256 344.488281 L 209 344.488281 Z M 209 215 " clip-rule="nonzero"/></clipPath><clipPath id="c41a643dec"><path d="M 250 99 L 337.796875 99 L 337.796875 344.488281 L 250 344.488281 Z M 250 99 " clip-rule="nonzero"/></clipPath><clipPath id="71a229dbf8"><path d="M 147 251 L 194 251 L 194 344.488281 L 147 344.488281 Z M 147 251 " clip-rule="nonzero"/></clipPath><clipPath id="345307f3ab"><path d="M 63 337 L 332 337 L 332 344.488281 L 63 344.488281 Z M 63 337 " clip-rule="nonzero"/></clipPath><clipPath id="fe80aa31fc"><path d="M 48 30.238281 L 272 30.238281 L 272 261 L 48 261 Z M 48 30.238281 " clip-rule="nonzero"/></clipPath></defs><g clip-path="url(#f5c0a49b6a)"><g clip-path="url(#97d8cca0e7)"><path fill="url(#69cab837f6)" d="M 5.445312 5.445312 L 5.445312 369.195312 L 369.195312 369.195312 L 369.195312 5.445312 Z M 5.445312 5.445312 " fill-rule="nonzero"/></g></g><g clip-path="url(#3d158259f2)"><path fill="#ffcb37" d="M 88.136719 174.035156 C 50.882812 174.035156 19.832031 143.042969 19.832031 105.855469 C 19.832031 68.046875 50.882812 37.675781 88.136719 37.675781 C 126.015625 37.675781 156.441406 68.046875 156.441406 105.855469 C 156.441406 143.042969 126.015625 174.035156 88.136719 174.035156 Z M 88.136719 174.035156 " fill-opacity="1" fill-rule="evenodd"/></g><path fill="#ff941f" d="M 88.136719 47.59375 C 56.46875 47.59375 30.390625 73.625 30.390625 105.855469 C 30.390625 137.464844 56.46875 163.5 88.136719 163.5 C 120.425781 163.5 146.507812 137.464844 146.507812 105.855469 C 146.507812 73.625 120.425781 47.59375 88.136719 47.59375 Z M 88.136719 47.59375 " fill-opacity="1" fill-rule="evenodd"/><path fill="#f9d987" d="M 88.136719 144.902344 C 75.71875 144.902344 65.785156 134.988281 65.785156 122.589844 C 65.785156 120.109375 68.269531 117.632812 71.371094 117.632812 C 73.855469 117.632812 76.339844 120.109375 76.339844 122.589844 C 76.339844 129.410156 81.929688 134.367188 88.136719 134.367188 C 94.96875 134.367188 99.9375 129.410156 99.9375 122.589844 C 99.9375 115.773438 94.96875 110.8125 88.136719 110.8125 C 75.71875 110.8125 65.785156 100.898438 65.785156 88.5 C 65.785156 76.105469 75.71875 66.1875 88.136719 66.1875 C 100.558594 66.1875 110.492188 76.105469 110.492188 88.5 C 110.492188 91.597656 108.007812 93.457031 105.523438 93.457031 C 102.417969 93.457031 99.9375 91.597656 99.9375 88.5 C 99.9375 81.683594 94.96875 76.722656 88.136719 76.722656 C 81.929688 76.722656 76.339844 81.683594 76.339844 88.5 C 76.339844 95.316406 81.929688 100.277344 88.136719 100.277344 C 100.558594 100.277344 110.492188 110.195312 110.492188 122.589844 C 110.492188 134.988281 100.558594 144.902344 88.136719 144.902344 Z M 88.136719 144.902344 " fill-opacity="1" fill-rule="evenodd"/><path fill="#f9d987" d="M 88.136719 149.863281 C 85.652344 149.863281 83.171875 148.003906 83.171875 144.902344 L 83.171875 66.1875 C 83.171875 63.707031 85.652344 61.226562 88.136719 61.226562 C 91.242188 61.226562 93.105469 63.707031 93.105469 66.1875 L 93.105469 144.902344 C 93.105469 148.003906 91.242188 149.863281 88.136719 149.863281 Z M 88.136719 149.863281 " fill-opacity="1" fill-rule="evenodd"/><g clip-path="url(#c32dcb4ae7)"><path fill="#df5a49" d="M 127.878906 344.488281 L 90 344.488281 C 88.136719 344.488281 86.273438 343.246094 86.273438 340.769531 L 86.273438 280.023438 C 86.273438 278.164062 88.136719 276.304688 90 276.304688 L 127.878906 276.304688 C 129.742188 276.304688 131.605469 278.164062 131.605469 280.023438 L 131.605469 340.769531 C 131.605469 343.246094 129.742188 344.488281 127.878906 344.488281 Z M 127.878906 344.488281 " fill-opacity="1" fill-rule="evenodd"/></g><g clip-path="url(#db641dc847)"><path fill="#df5a49" d="M 251.449219 344.488281 L 213.570312 344.488281 C 211.085938 344.488281 209.84375 343.246094 209.84375 340.769531 L 209.84375 219.28125 C 209.84375 217.421875 211.085938 215.5625 213.570312 215.5625 L 251.449219 215.5625 C 253.308594 215.5625 255.171875 217.421875 255.171875 219.28125 L 255.171875 340.769531 C 255.171875 343.246094 253.308594 344.488281 251.449219 344.488281 Z M 251.449219 344.488281 " fill-opacity="1" fill-rule="evenodd"/></g><g clip-path="url(#c41a643dec)"><path fill="#7ed63f" d="M 312.921875 344.488281 L 275.042969 344.488281 C 273.179688 344.488281 271.316406 343.246094 271.316406 340.769531 L 271.316406 165.976562 L 253.929688 165.976562 C 252.691406 165.976562 251.449219 165.359375 250.828125 164.117188 C 250.207031 162.878906 250.207031 161.640625 250.828125 160.398438 L 289.945312 100.898438 C 290.566406 99.65625 291.808594 99.039062 293.050781 99.039062 C 294.292969 99.039062 295.535156 99.65625 296.15625 100.898438 L 336.519531 159.78125 C 337.136719 160.398438 337.757812 161.640625 337.757812 162.257812 C 337.757812 164.117188 335.898438 165.976562 334.035156 165.976562 L 316.648438 165.976562 L 316.648438 340.769531 C 316.648438 343.246094 314.785156 344.488281 312.921875 344.488281 Z M 312.921875 344.488281 " fill-opacity="1" fill-rule="evenodd"/></g><g clip-path="url(#71a229dbf8)"><path fill="#7ed63f" d="M 189.351562 344.488281 L 151.476562 344.488281 C 149.613281 344.488281 147.75 343.246094 147.75 340.769531 L 147.75 255.230469 C 147.75 253.371094 149.613281 251.511719 151.476562 251.511719 L 189.351562 251.511719 C 191.835938 251.511719 193.078125 253.371094 193.078125 255.230469 L 193.078125 340.769531 C 193.078125 343.246094 191.835938 344.488281 189.351562 344.488281 Z M 189.351562 344.488281 " fill-opacity="1" fill-rule="evenodd"/></g><g clip-path="url(#345307f3ab)"><path fill="#4d4d4d" d="M 327.824219 344.488281 L 67.648438 344.488281 C 65.785156 344.488281 63.921875 343.246094 63.921875 340.769531 C 63.921875 338.910156 65.785156 337.050781 67.648438 337.050781 L 327.824219 337.050781 C 329.6875 337.050781 331.550781 338.910156 331.550781 340.769531 C 331.550781 343.246094 329.6875 344.488281 327.824219 344.488281 Z M 327.824219 344.488281 " fill-opacity="1" fill-rule="evenodd"/></g><g clip-path="url(#fe80aa31fc)"><path fill="#f8a805" d="M 64.542969 260.8125 C 56.46875 260.8125 49.640625 255.230469 48.398438 247.792969 C 47.777344 240.976562 51.503906 232.917969 61.4375 229.820312 C 68.269531 227.960938 75.71875 224.859375 81.308594 222.382812 C 82.550781 221.761719 84.414062 221.140625 86.273438 219.902344 C 99.9375 213.703125 113.597656 205.027344 126.636719 196.347656 C 164.515625 168.457031 192.457031 133.128906 209.222656 91.597656 C 212.328125 84.160156 214.8125 76.105469 216.675781 68.664062 L 217.296875 66.804688 L 196.804688 58.128906 C 195.5625 57.507812 194.320312 56.269531 194.320312 54.410156 C 194.320312 53.171875 195.5625 51.929688 196.804688 51.3125 L 245.859375 30.855469 C 248.34375 30.238281 250.207031 30.855469 250.828125 32.714844 L 271.316406 82.300781 C 271.9375 83.542969 271.316406 85.402344 270.695312 86.019531 C 269.457031 87.261719 267.59375 87.878906 266.351562 87.261719 L 246.480469 78.582031 C 237.785156 107.714844 224.746094 134.367188 207.980469 158.539062 C 190.59375 182.09375 168.863281 203.789062 144.023438 221.761719 C 127.878906 233.539062 110.492188 243.457031 93.105469 250.894531 C 86.894531 253.992188 78.824219 257.710938 70.75 259.570312 C 68.269531 260.191406 66.40625 260.8125 64.542969 260.8125 Z M 64.542969 260.8125 " fill-opacity="1" fill-rule="evenodd"/></g></svg>